<svg width="1200" height="250" viewBox="0 0 1200 250" fill="none" xmlns="http://www.w3.org/2000/svg">
<rect width="1200" height="250" rx="10" fill="#FBE8D3"/>
<path fill-rule="evenodd" clip-rule="evenodd" d="M379.997 225.002C374.398 225.002 368.94 224.427 363.589 223.547L368.176 212.117C372.052 212.641 375.979 213.003 379.997 213.003C385.555 213.003 390.975 212.423 396.249 211.441L382.919 197.002H363.998H359.997H355.997V185.006H342.887C341.503 187.384 338.951 189.006 336 189.006C331.582 189.006 327.997 185.424 327.997 181.003C327.997 176.583 331.58 173.003 336 173.003C338.953 173.003 341.505 174.621 342.887 177.003H355.997V173.003V165H363.998H404.001V166.711L413.815 177.343C414.515 177.143 415.239 177.003 415.999 177.003C420.418 177.003 424 180.585 424 185.006C424 189.422 420.42 193.002 415.999 193.002C411.579 193.002 408.001 189.424 408.001 185.006C408.001 184.348 408.099 183.719 408.246 183.108L398.918 173.003H364V189.004H388V190.711L405.168 209.303C419.782 204.947 432.756 196.856 443.106 186.201L430.921 173.003H428.003V135.169L415.924 122.094C412.584 125.003 409.032 128.099 405.588 131.102C404.923 131.686 403.603 132.833 403.603 132.833L400 132.886V133H382.89C381.506 135.382 378.954 137.002 376.001 137.002C371.583 137.002 368 133.42 368 128.999C368 124.579 371.583 121.001 376.001 121.001C378.954 121.001 381.506 122.619 382.89 125.001H400V125.875L424 104.488V72.9993H408.003V90.1117C410.381 91.4963 411.999 94.0476 411.999 96.9989C411.999 101.417 408.421 105.002 404.001 105.002C399.585 105.002 396 101.419 396 96.9989C396 94.0454 397.618 91.4941 400 90.1117V72.9993V68.999V64.9987H424V49.0352C420.831 47.2017 417.577 45.4949 414.175 44.0615C412.901 44.6482 411.495 44.9993 409.999 44.9993C404.479 44.9993 400 40.5212 400 34.9986C400 29.4781 404.479 25 409.999 25C414.984 25 419.082 28.6536 419.84 33.4184C455.216 48.8196 480 83.9579 480 125.001C480 180.23 435.23 225.002 379.997 225.002ZM448 129.001C443.582 129.001 440.001 125.423 440.001 121.003C440.001 118.049 441.621 115.498 443.999 114.111V81.0021H448H452.002H456.158C450.04 70.488 441.777 61.3806 432.003 54.2134V113.002H426.354C425.056 114.131 423.576 115.425 421.958 116.832L436.459 132.542L435.857 133.002H435.999V145.003H441.11C442.493 142.62 445.044 141.002 447.998 141.002C452.416 141.002 456 144.585 456 149.005C456 153.421 452.418 157.006 447.998 157.006C445.044 157.006 442.493 155.386 441.11 153.006H435.999V166.713L448.44 180.188C460.638 165.095 468.001 145.929 468.001 125.003C468.001 112.151 465.188 99.9858 460.227 89.0028H452V114.111C454.382 115.5 456 118.049 456 121.003C456 125.421 452.418 129.001 448 129.001ZM379.997 36.9987C377.299 36.9987 374.636 37.1676 372 37.4054V62.7096L381.815 73.3415C382.512 73.1415 383.237 73.0015 383.997 73.0015C388.415 73.0015 392 76.584 392 81.0044C392 85.4225 388.417 89.005 383.997 89.005C379.577 89.005 375.999 85.4225 375.999 81.0044C375.999 80.3487 376.096 79.7176 376.245 79.1086L370.611 73.0015H366.349L352.237 85.3047L363.038 97.0012H363.995V98.0412L364.035 98.0857L363.995 98.1212V149.007H405.112C406.494 146.623 409.046 145.005 411.999 145.005C416.417 145.005 420.002 148.587 420.002 153.008C420.002 157.428 416.419 161.006 411.999 161.006C409.046 161.006 406.494 159.386 405.112 157.008H364H360H355.999V101.168L319.31 61.4251C317.087 63.543 314.994 65.7876 313 68.1256L347.041 105.002H347.999V106.04L348.039 106.084L347.999 106.12V153.006V161.004H340H319.999H316.003H312.002V141.005H293.497C299.595 174.107 324.217 200.691 356.233 209.668L351.732 220.889C310.278 208.679 280 170.405 280 125.003C280 69.7724 324.772 25.0022 379.999 25.0022C385.437 25.0022 390.735 25.5534 395.938 26.389L391.355 37.8166C387.628 37.3365 383.857 36.9987 379.997 36.9987ZM308.011 74.5172C297.935 88.7961 291.996 106.189 291.996 125.003C291.996 127.701 292.136 130.364 292.377 133.002H319.996V137.004V141.005V153.006H339.998V109.169L327.493 95.6233L315.867 111.725C315.936 112.142 316.001 112.565 316.001 113.002C316.001 117.421 312.418 121.003 308 121.003C303.582 121.003 299.999 117.421 299.999 113.002C299.999 108.584 303.582 105.002 308 105.002C308.891 105.002 309.731 105.182 310.531 105.451L321.959 89.6272L308.011 74.5172ZM364 38.5233C349.561 41.179 336.402 47.4084 325.355 56.1735L346.814 79.422L364 64.4386V38.5233Z" fill="#283C63"/>
<path d="M522.7 90.9265V133.566H520V67H533.406V69.793H522.7V88.0404H533.406V90.9265H522.7V90.9265ZM556.204 69.793H545.497V88.1335H556.204V90.9265H545.497V130.773H556.204V133.566H542.798V67H556.204V69.793V69.793ZM587.474 67V69.6999H577.977V133.566H575.278V69.6999H565.595V67H587.474ZM632.429 128.538L634.477 130.587C630.287 132.449 625.726 133.566 620.791 133.566C602.451 133.566 587.555 118.577 587.555 100.236C587.555 81.8958 602.451 67 620.791 67C625.726 67 630.287 68.0241 634.477 69.8861L632.429 71.9343C628.891 70.5378 624.981 69.6999 620.791 69.6999C603.94 69.6999 590.255 83.3854 590.255 100.236C590.255 117.087 603.94 130.773 620.791 130.773C624.981 130.773 628.891 130.028 632.429 128.538ZM666.584 67H669.284V133.566H666.584V90.9265H646.568V133.566H643.868V67H646.568V88.0404H666.584V67V67ZM724.841 67V69.6999H715.345V133.566H712.645V69.6999H702.963V67H724.841V67ZM759.649 89.7162C759.649 98.3744 754.9 105.915 747.825 109.732L759.649 133.566H756.576L745.311 110.85C742.891 111.874 740.191 112.432 737.398 112.432H736.932V133.566H734.233V67H737.398C749.687 67 759.649 77.1478 759.649 89.7162V89.7162ZM736.932 69.6999V109.732H737.398C748.197 109.732 756.949 100.702 756.949 89.7162C756.949 78.6374 748.197 69.6999 737.398 69.6999H736.932V69.6999ZM771.74 67V133.566H769.04V67H771.74ZM811.668 88.0404H817.067V133.566H814.367C796.027 133.566 781.131 118.577 781.131 100.236C781.131 81.8958 796.027 67 814.367 67H817.067V69.6999H814.367C797.517 69.6999 783.831 83.3854 783.831 100.236C783.831 117.087 797.517 130.773 814.367 130.773V90.8334H811.668V88.0404V88.0404ZM856.995 88.0404H862.395V133.566H859.695C841.355 133.566 826.459 118.577 826.459 100.236C826.459 81.8958 841.355 67 859.695 67H862.395V69.6999H859.695C842.844 69.6999 829.159 83.3854 829.159 100.236C829.159 117.087 842.844 130.773 859.695 130.773V90.8334H856.995V88.0404V88.0404ZM885.193 69.793H874.486V88.1335H885.193V90.9265H874.486V130.773H885.193V133.566H871.786V67H885.193V69.793V69.793ZM920 89.7162C920 98.3744 915.252 105.915 908.176 109.732L920 133.566H916.928L905.663 110.85C903.242 111.874 900.542 112.432 897.749 112.432H897.284V133.566H894.584V67H897.749C910.038 67 920 77.1478 920 89.7162V89.7162ZM897.284 69.6999V109.732H897.749C908.549 109.732 917.3 100.702 917.3 89.7162C917.3 78.6374 908.549 69.6999 897.749 69.6999H897.284V69.6999Z" fill="#283C63"/>
<path d="M534.629 182.067L532.671 174.042H525.222L523.264 182.067H520L527.679 153.269H530.329L537.97 182.067H534.629V182.067ZM529.062 158.836L526.028 170.778H531.865L529.062 158.836ZM552.292 182.067L543.384 161.409V182.067H540.005V153.269H543.23L552.215 173.12L552.407 153.269H555.748V182.067H552.292ZM580.091 182.067L578.133 174.042H570.684L568.726 182.067H565.462L573.141 153.269H575.791L583.432 182.067H580.091V182.067ZM574.524 158.836L571.49 170.778H577.327L574.524 158.836ZM585.044 182.067V153.269H587.924V182.067H585.044ZM604.358 182.067L598.599 170.739H594.413V182.067H591.226V153.269H597.907C599.418 153.269 600.71 153.506 601.785 153.979C602.861 154.453 603.744 155.093 604.435 155.899C605.126 156.705 605.638 157.627 605.971 158.664C606.304 159.7 606.47 160.782 606.47 161.908C606.47 162.804 606.361 163.674 606.144 164.519C605.926 165.364 605.612 166.145 605.203 166.861C604.793 167.578 604.313 168.224 603.763 168.8C603.213 169.376 602.617 169.831 601.977 170.164L608.39 182.067H604.358H604.358ZM597.677 156.456L594.413 156.456V167.399H597.907C598.957 167.399 599.821 167.239 600.499 166.919C601.178 166.599 601.709 166.177 602.093 165.652C602.477 165.127 602.745 164.526 602.899 163.847C603.053 163.169 603.129 162.459 603.129 161.716C603.129 160.974 603.008 160.283 602.765 159.643C602.521 159.003 602.169 158.446 601.709 157.972C601.248 157.499 600.678 157.128 600 156.859C599.322 156.59 598.547 156.456 597.677 156.456V156.456ZM616.53 156.763V182.067H613.074V156.763H607.43V153.269H622.174V156.763H616.53V156.763ZM634.231 182.067L632.273 174.042H624.824L622.865 182.067H619.602L627.281 153.269H629.93L637.571 182.067H634.231V182.067ZM628.663 158.836L625.63 170.778H631.466L628.663 158.836ZM651.893 179.916C651.151 180.659 650.268 181.203 649.244 181.548C648.22 181.894 647.081 182.067 645.827 182.067H639.184V153.269H644.982C646.492 153.269 647.753 153.48 648.764 153.903C649.775 154.325 650.588 154.894 651.202 155.611C651.817 156.328 652.252 157.154 652.508 158.088C652.764 159.022 652.892 160.001 652.892 161.025C652.892 162.075 652.629 163.041 652.105 163.924C651.58 164.807 650.972 165.582 650.281 166.247C650.383 166.298 650.479 166.362 650.569 166.439C650.658 166.516 650.767 166.593 650.895 166.67C651.228 166.951 651.599 167.29 652.009 167.687C652.418 168.084 652.796 168.557 653.141 169.108C653.487 169.658 653.775 170.285 654.005 170.989C654.236 171.693 654.351 172.48 654.351 173.35C654.351 174.784 654.14 176.045 653.717 177.133C653.295 178.221 652.687 179.148 651.893 179.916V179.916ZM645.788 156.609L642.448 156.609V164.941H646.172C646.659 164.941 647.119 164.839 647.555 164.634C647.99 164.43 648.374 164.154 648.706 163.809C649.039 163.463 649.295 163.047 649.474 162.561C649.654 162.075 649.743 161.563 649.743 161.025C649.743 160.564 649.686 160.078 649.57 159.566C649.455 159.054 649.25 158.58 648.956 158.145C648.662 157.71 648.259 157.345 647.747 157.051C647.235 156.757 646.582 156.609 645.788 156.609L645.788 156.609ZM646.019 168.244H642.448V178.649H645.443C646.159 178.649 646.863 178.56 647.555 178.38C648.246 178.201 648.86 177.913 649.398 177.517C649.935 177.12 650.364 176.595 650.684 175.942C651.004 175.289 651.164 174.477 651.164 173.504C651.164 171.687 650.671 170.355 649.686 169.511C648.7 168.666 647.478 168.244 646.019 168.244V168.244ZM656.731 182.067V153.269H659.995V178.611H668.596V182.067H656.731V182.067ZM670.746 182.067V153.269H684.876V156.878H673.972V165.748H684.8V168.935H673.972V178.457H685.145V182.067H670.746ZM694.092 182.067V153.269H708.222V156.878H697.317V165.748H708.145V168.935H697.317V178.457H708.49V182.067H694.092V182.067ZM724.348 182.067L718.858 169.741L713.405 182.067H709.335L716.131 167.668L709.335 153.269H713.405L718.858 165.594L724.348 153.269H728.38L721.584 167.668L728.38 182.067H724.348ZM738.709 156.763V182.067H735.253V156.763H729.609V153.269H744.353V156.763H738.709V156.763ZM746.465 182.067V153.269H760.595V156.878H749.69V165.748H760.518V168.935H749.69V178.457H760.864V182.067H746.465ZM775.455 182.067L766.547 161.409V182.067H763.168V153.269H766.393L775.378 173.12L775.57 153.269H778.91V182.067H775.455ZM789.777 182.412C788.497 182.412 787.358 182.22 786.36 181.836C785.361 181.452 784.536 180.851 783.883 180.032C783.23 179.212 782.75 178.15 782.443 176.845C782.136 175.539 782.021 173.978 782.098 172.16H785.63C785.63 173.082 785.656 173.971 785.707 174.829C785.758 175.686 785.905 176.441 786.148 177.094C786.392 177.747 786.769 178.265 787.281 178.649C787.793 179.033 788.523 179.225 789.47 179.225C790.289 179.225 790.974 179.104 791.524 178.86C792.074 178.617 792.516 178.291 792.849 177.881C793.181 177.472 793.418 176.985 793.559 176.422C793.7 175.859 793.77 175.257 793.77 174.617C793.745 173.235 793.29 172.135 792.407 171.315C791.524 170.496 790.391 169.792 789.009 169.204C787.883 168.743 786.878 168.276 785.995 167.802C785.112 167.328 784.376 166.784 783.787 166.17C783.198 165.556 782.75 164.839 782.443 164.02C782.136 163.201 781.982 162.19 781.982 160.987C781.982 158.324 782.661 156.328 784.017 154.997C785.374 153.665 787.294 153 789.777 153C791.953 153 793.674 153.678 794.941 155.035C796.208 156.392 796.842 158.376 796.842 160.987V163.713H793.463V160.795C793.463 159.412 793.162 158.299 792.561 157.454C791.959 156.609 791.006 156.187 789.7 156.187C788.087 156.187 786.948 156.609 786.283 157.454C785.617 158.299 785.31 159.489 785.361 161.025C785.387 161.665 785.496 162.215 785.688 162.676C785.88 163.137 786.155 163.54 786.513 163.886C786.872 164.231 787.307 164.551 787.819 164.845C788.331 165.14 788.932 165.441 789.623 165.748C790.468 166.132 791.306 166.541 792.138 166.976C792.97 167.412 793.745 167.936 794.461 168.551C795.204 169.216 795.831 170.023 796.343 170.97C796.855 171.917 797.111 173.069 797.111 174.425C797.111 177.036 796.458 179.02 795.152 180.377C793.847 181.734 792.055 182.412 789.777 182.412L789.777 182.412ZM800.067 182.067V153.269H802.947V182.067H800.067ZM813.506 182.412C811.1 182.412 809.289 181.734 808.073 180.377C806.857 179.02 806.249 177.037 806.249 174.426V160.987C806.249 158.35 806.863 156.36 808.092 155.016C809.321 153.672 811.279 153 813.967 153C816.424 153 818.255 153.678 819.458 155.035C820.661 156.392 821.262 158.35 821.262 160.91V174.426C821.262 177.062 820.674 179.052 819.496 180.396C818.318 181.74 816.322 182.412 813.506 182.412V182.412ZM817.96 160.871C817.96 160.308 817.89 159.752 817.749 159.201C817.608 158.651 817.384 158.158 817.077 157.723C816.77 157.288 816.36 156.936 815.848 156.667C815.336 156.398 814.696 156.264 813.928 156.264C813.058 156.264 812.341 156.379 811.778 156.609C811.215 156.84 810.767 157.179 810.434 157.627C810.102 158.075 809.871 158.606 809.743 159.22C809.615 159.835 809.551 160.526 809.551 161.294V174.234C809.551 174.822 809.615 175.405 809.743 175.981C809.871 176.557 810.082 177.075 810.377 177.536C810.671 177.997 811.074 178.368 811.586 178.649C812.098 178.931 812.738 179.072 813.506 179.072C814.376 179.072 815.1 178.963 815.675 178.745C816.251 178.528 816.706 178.214 817.039 177.804C817.371 177.395 817.608 176.896 817.749 176.307C817.89 175.718 817.96 175.066 817.96 174.349V160.871H817.96ZM836.544 182.067L827.636 161.409V182.067H824.257V153.269H827.483L836.467 173.12L836.659 153.269H840V182.067H836.544V182.067Z" fill="#283C63"/>
</svg>
