<svg width="1200" height="250" viewBox="0 0 1200 250" fill="none" xmlns="http://www.w3.org/2000/svg">
<rect width="1200" height="250" rx="10" fill="#F1F1F1"/>
<path fill-rule="evenodd" clip-rule="evenodd" d="M425.381 152.881H343.714V161.637C342.128 170.613 334.265 177.432 324.804 177.432C314.198 177.432 305.601 168.864 305.601 158.295C305.601 151.773 308.875 146.013 313.874 142.558L308.367 134.719C300.892 139.904 296 148.53 296 158.295C296 174.148 308.896 187 324.804 187C339.07 187 350.913 176.664 353.206 163.096H424.993C426.655 165.947 429.753 167.863 433.299 167.863C438.602 167.863 442.9 163.579 442.9 158.295C442.9 153.01 438.602 148.726 433.299 148.726C430.013 148.726 427.112 150.372 425.381 152.881Z" fill="url(#paint0_linear_914_12)"/>
<path fill-rule="evenodd" clip-rule="evenodd" d="M316.212 154.313C316.378 153.902 316.575 153.498 316.802 153.104C318.566 150.045 321.76 148.328 325.049 148.312L361.054 85.8809C350.444 77.1163 347.395 61.7067 354.506 49.3765C362.432 35.6334 379.978 30.9203 393.697 38.8495C402.119 43.7176 407.141 52.2192 407.929 61.2381L398.402 62.0743C397.878 56.06 394.53 50.3903 388.913 47.1442C379.768 41.8581 368.07 45.0001 362.786 54.1622C357.612 63.1348 360.507 74.5534 369.219 79.9868L374.484 83.0298L333.704 153.741C334.863 156.163 334.988 159.038 333.883 161.631C332.535 165.284 329.024 167.888 324.905 167.888C319.621 167.888 315.338 163.603 315.338 158.317C315.338 156.887 315.651 155.531 316.212 154.313Z" fill="url(#paint1_linear_914_12)"/>
<path fill-rule="evenodd" clip-rule="evenodd" d="M378.512 73.2103L418.884 143.213L423.692 140.434L423.773 140.576C423.813 140.552 423.853 140.529 423.892 140.506C433.045 135.216 444.704 138.281 449.936 147.352C455.167 156.422 451.988 168.064 442.836 173.354C437.194 176.615 430.599 176.7 425.144 174.162L421.072 182.795C429.246 186.585 439.122 186.45 447.572 181.565C461.3 173.631 466.068 156.169 458.221 142.563C451.136 130.278 436.191 125.338 423.25 130.334L387.428 68.2201C388.971 65.4032 389.058 61.8897 387.348 58.9254C384.733 54.3901 378.903 52.8576 374.327 55.5025C369.751 58.1474 368.161 63.9681 370.777 68.5033C372.439 71.3857 375.4 73.0552 378.512 73.2103Z" fill="url(#paint2_linear_914_12)"/>
<path d="M904 203H296V214H904V203Z" fill="url(#paint3_linear_914_12)"/>
<path d="M550.448 118.011V130.819H530.259V184.748H515.189V130.819H495V118.011H550.448ZM579.717 117.241C589.764 117.241 597.459 119.022 602.804 122.586C608.15 126.149 610.822 131.686 610.822 139.198C610.822 143.884 609.743 147.688 607.586 150.609C605.429 153.53 602.321 155.826 598.264 157.495C599.617 159.164 601.033 161.074 602.515 163.225C603.996 165.375 605.461 167.623 606.91 169.966C608.359 172.309 609.76 174.749 611.112 177.285C612.464 179.821 613.72 182.308 614.879 184.748H597.974C596.751 182.565 595.511 180.35 594.255 178.103C593 175.856 591.712 173.673 590.391 171.555C589.071 169.436 587.767 167.43 586.479 165.536C585.191 163.642 583.903 161.925 582.615 160.384H575.177V184.748H560.108V118.974C563.392 118.332 566.789 117.883 570.299 117.626C573.809 117.369 576.948 117.241 579.717 117.241ZM580.587 130.049C579.492 130.049 578.51 130.081 577.64 130.145C576.771 130.209 575.95 130.274 575.177 130.338V148.443H579.427C585.095 148.443 589.152 147.736 591.599 146.324C594.046 144.911 595.27 142.504 595.27 139.101C595.27 135.827 594.03 133.5 591.551 132.119C589.071 130.739 585.417 130.049 580.587 130.049ZM624.539 118.011H639.609V184.748H624.539V118.011ZM687.715 129.567C680.695 129.567 675.624 131.51 672.501 135.394C669.377 139.278 667.816 144.59 667.816 151.332C667.816 154.606 668.202 157.575 668.975 160.239C669.748 162.904 670.907 165.199 672.452 167.125C673.998 169.051 675.93 170.544 678.248 171.603C680.567 172.662 683.271 173.192 686.363 173.192C688.037 173.192 689.47 173.16 690.661 173.096C691.853 173.031 692.899 172.903 693.801 172.71V149.502H708.87V182.533C707.067 183.239 704.169 183.994 700.176 184.796C696.183 185.599 691.257 186 685.397 186C680.373 186 675.817 185.23 671.728 183.689C667.638 182.148 664.145 179.901 661.247 176.948C658.349 173.994 656.111 170.367 654.533 166.066C652.955 161.764 652.166 156.853 652.166 151.332C652.166 145.746 653.036 140.803 654.775 136.501C656.513 132.2 658.896 128.556 661.923 125.571C664.95 122.586 668.508 120.323 672.597 118.782C676.687 117.241 681.05 116.471 685.686 116.471C688.842 116.471 691.692 116.679 694.235 117.096C696.779 117.514 698.969 117.995 700.804 118.541C702.639 119.087 704.153 119.648 705.344 120.226C706.536 120.804 707.389 121.253 707.904 121.574L703.557 133.612C701.496 132.521 699.13 131.574 696.457 130.771C693.785 129.969 690.87 129.567 687.715 129.567ZM755.527 129.567C748.508 129.567 743.436 131.51 740.313 135.394C737.19 139.278 735.628 144.59 735.628 151.332C735.628 154.606 736.014 157.575 736.787 160.239C737.56 162.904 738.719 165.199 740.265 167.125C741.81 169.051 743.742 170.544 746.061 171.603C748.379 172.662 751.084 173.192 754.175 173.192C755.849 173.192 757.282 173.16 758.474 173.096C759.665 173.031 760.712 172.903 761.613 172.71V149.502H776.683V182.533C774.879 183.239 771.981 183.994 767.989 184.796C763.996 185.599 759.069 186 753.209 186C748.186 186 743.63 185.23 739.54 183.689C735.451 182.148 731.957 179.901 729.059 176.948C726.161 173.994 723.923 170.367 722.346 166.066C720.768 161.764 719.979 156.853 719.979 151.332C719.979 145.746 720.848 140.803 722.587 136.501C724.326 132.2 726.709 128.556 729.735 125.571C732.762 122.586 736.32 120.323 740.41 118.782C744.499 117.241 748.862 116.471 753.499 116.471C756.654 116.471 759.504 116.679 762.048 117.096C764.592 117.514 766.781 117.995 768.617 118.541C770.452 119.087 771.965 119.648 773.157 120.226C774.348 120.804 775.201 121.253 775.717 121.574L771.37 133.612C769.309 132.521 766.942 131.574 764.27 130.771C761.597 129.969 758.683 129.567 755.527 129.567ZM790.689 184.748V118.011H835.898V130.627H805.759V143.724H832.517V156.05H805.759V172.133H838.12V184.748H790.689ZM868.838 117.241C878.884 117.241 886.58 119.022 891.925 122.586C897.27 126.149 899.943 131.686 899.943 139.198C899.943 143.884 898.864 147.688 896.707 150.609C894.549 153.53 891.442 155.826 887.385 157.495C888.737 159.164 890.154 161.074 891.635 163.225C893.116 165.375 894.582 167.623 896.031 169.966C897.48 172.309 898.88 174.749 900.233 177.285C901.585 179.821 902.841 182.308 904 184.748H887.095C885.872 182.565 884.632 180.35 883.376 178.103C882.12 175.856 880.832 173.673 879.512 171.555C878.192 169.436 876.888 167.43 875.6 165.536C874.312 163.642 873.024 161.925 871.736 160.384H864.298V184.748H849.228V118.974C852.513 118.332 855.91 117.883 859.42 117.626C862.929 117.369 866.069 117.241 868.838 117.241ZM869.707 130.049C868.613 130.049 867.63 130.081 866.761 130.145C865.892 130.209 865.071 130.274 864.298 130.338V148.443H868.548C874.215 148.443 878.272 147.736 880.72 146.324C883.167 144.911 884.39 142.504 884.39 139.101C884.39 135.827 883.151 133.5 880.671 132.119C878.192 130.739 874.537 130.049 869.707 130.049Z" fill="url(#paint4_linear_914_12)"/>
<path d="M536.341 46.0652C536.971 48.2109 537.667 50.6314 538.428 53.3266C539.189 56.0219 540.003 58.8087 540.869 61.6871C541.735 64.5655 542.614 67.4439 543.507 70.3223C544.399 73.2007 545.265 75.8698 546.105 78.3295C546.788 75.6604 547.483 72.7559 548.192 69.6158C548.901 66.4757 549.57 63.231 550.2 59.8815C550.83 56.5321 551.447 53.1958 552.051 49.8725C552.654 46.5493 553.219 43.3438 553.744 40.256H566.5C564.663 49.3623 562.55 58.5993 560.161 67.9672C557.773 77.3352 555.187 86.2321 552.405 94.6579H541.144C539.307 89.6338 537.522 84.3611 535.79 78.8398C534.057 73.3185 532.351 67.7841 530.671 62.2366C528.991 67.7841 527.312 73.3185 525.632 78.8398C523.952 84.3611 522.193 89.6338 520.356 94.6579H509.095C506.313 86.2321 503.728 77.3352 501.339 67.9672C498.95 58.5993 496.837 49.3623 495 40.256H508.308C508.833 43.3438 509.41 46.5493 510.04 49.8725C510.67 53.1958 511.326 56.5321 512.009 59.8815C512.691 63.231 513.387 66.4757 514.096 69.6158C514.804 72.7559 515.526 75.6604 516.261 78.3295C517.206 75.7651 518.125 73.0437 519.017 70.1653C519.91 67.2869 520.776 64.4085 521.616 61.5301C522.456 58.6517 523.23 55.8779 523.939 53.2089C524.647 50.5398 525.29 48.1586 525.868 46.0652H536.341ZM574.375 94.6579V40.256H611.227V50.5398H586.659V61.2161H608.471V71.2643H586.659V84.3742H613.038V94.6579H574.375ZM640.284 95.3645C637.292 95.3645 634.313 95.2729 631.346 95.0897C628.38 94.9065 625.296 94.4748 622.094 93.7944V41.0411C624.614 40.57 627.37 40.2168 630.362 39.9813C633.354 39.7458 636.137 39.628 638.709 39.628C642.174 39.628 645.363 39.8766 648.277 40.3738C651.19 40.871 653.697 41.7214 655.797 42.9251C657.897 44.1288 659.537 45.7119 660.718 47.6745C661.899 49.637 662.49 52.0575 662.49 54.9359C662.49 59.2797 660.39 62.7076 656.19 65.2197C659.655 66.528 662.018 68.3074 663.277 70.5578C664.537 72.8082 665.167 75.3464 665.167 78.1725C665.167 83.877 663.081 88.1684 658.907 91.0468C654.734 93.9252 648.526 95.3645 640.284 95.3645ZM634.063 70.9503V85.0022C634.956 85.1069 635.927 85.1854 636.977 85.2377C638.027 85.29 639.182 85.3162 640.441 85.3162C644.116 85.3162 647.082 84.7928 649.34 83.7462C651.597 82.6995 652.726 80.7631 652.726 77.937C652.726 75.4249 651.781 73.6325 649.891 72.5596C648.001 71.4867 645.297 70.9503 641.78 70.9503H634.063ZM634.063 61.6086H640.048C643.827 61.6086 646.531 61.1245 648.158 60.1563C649.786 59.1881 650.6 57.6311 650.6 55.4854C650.6 53.2874 649.76 51.7435 648.08 50.8538C646.4 49.9641 643.933 49.5193 640.678 49.5193C639.628 49.5193 638.499 49.5324 637.292 49.5585C636.084 49.5847 635.008 49.6501 634.063 49.7548V61.6086ZM707.926 40.256H720.21V94.6579H707.926V71.5783H687.295V94.6579H675.01V40.256H687.295V61.0591H707.926V40.256ZM743.125 67.4177C743.125 70.0868 743.453 72.4942 744.109 74.6399C744.765 76.7856 745.71 78.6304 746.944 80.1743C748.177 81.7182 749.687 82.9088 751.472 83.7462C753.256 84.5835 755.304 85.0022 757.614 85.0022C759.871 85.0022 761.905 84.5835 763.716 83.7462C765.527 82.9088 767.05 81.7182 768.284 80.1743C769.517 78.6304 770.462 76.7856 771.118 74.6399C771.775 72.4942 772.103 70.0868 772.103 67.4177C772.103 64.7487 771.775 62.3282 771.118 60.1563C770.462 57.9844 769.517 56.1265 768.284 54.5827C767.05 53.0388 765.527 51.8482 763.716 51.0108C761.905 50.1735 759.871 49.7548 757.614 49.7548C755.304 49.7548 753.256 50.1865 751.472 51.0501C749.687 51.9136 748.177 53.1173 746.944 54.6612C745.71 56.205 744.765 58.0629 744.109 60.2348C743.453 62.4067 743.125 64.801 743.125 67.4177ZM784.781 67.4177C784.781 72.0755 784.085 76.1707 782.694 79.7033C781.303 83.2359 779.4 86.1928 776.985 88.574C774.57 90.9553 771.696 92.7477 768.362 93.9514C765.029 95.1551 761.446 95.757 757.614 95.757C753.886 95.757 750.369 95.1551 747.062 93.9514C743.755 92.7477 740.867 90.9553 738.4 88.574C735.933 86.1928 733.99 83.2359 732.573 79.7033C731.155 76.1707 730.447 72.0755 730.447 67.4177C730.447 62.7599 731.182 58.6648 732.652 55.1322C734.121 51.5996 736.103 48.6296 738.597 46.2222C741.09 43.8148 743.978 42.0092 747.259 40.8055C750.54 39.6018 753.991 39 757.614 39C761.341 39 764.858 39.6018 768.165 40.8055C771.473 42.0092 774.36 43.8148 776.827 46.2222C779.295 48.6296 781.237 51.5996 782.654 55.1322C784.072 58.6648 784.781 62.7599 784.781 67.4177ZM805.333 67.4177C805.333 70.0868 805.661 72.4942 806.317 74.6399C806.973 76.7856 807.918 78.6304 809.152 80.1743C810.386 81.7182 811.895 82.9088 813.68 83.7462C815.465 84.5835 817.512 85.0022 819.822 85.0022C822.079 85.0022 824.113 84.5835 825.925 83.7462C827.736 82.9088 829.258 81.7182 830.492 80.1743C831.725 78.6304 832.67 76.7856 833.327 74.6399C833.983 72.4942 834.311 70.0868 834.311 67.4177C834.311 64.7487 833.983 62.3282 833.327 60.1563C832.67 57.9844 831.725 56.1265 830.492 54.5827C829.258 53.0388 827.736 51.8482 825.925 51.0108C824.113 50.1735 822.079 49.7548 819.822 49.7548C817.512 49.7548 815.465 50.1865 813.68 51.0501C811.895 51.9136 810.386 53.1173 809.152 54.6612C807.918 56.205 806.973 58.0629 806.317 60.2348C805.661 62.4067 805.333 64.801 805.333 67.4177ZM846.989 67.4177C846.989 72.0755 846.293 76.1707 844.902 79.7033C843.511 83.2359 841.608 86.1928 839.193 88.574C836.778 90.9553 833.904 92.7477 830.571 93.9514C827.237 95.1551 823.654 95.757 819.822 95.757C816.095 95.757 812.577 95.1551 809.27 93.9514C805.963 92.7477 803.076 90.9553 800.608 88.574C798.141 86.1928 796.199 83.2359 794.781 79.7033C793.364 76.1707 792.655 72.0755 792.655 67.4177C792.655 62.7599 793.39 58.6648 794.86 55.1322C796.33 51.5996 798.312 48.6296 800.805 46.2222C803.299 43.8148 806.186 42.0092 809.467 40.8055C812.748 39.6018 816.2 39 819.822 39C823.549 39 827.066 39.6018 830.374 40.8055C833.681 42.0092 836.568 43.8148 839.036 46.2222C841.503 48.6296 843.445 51.5996 844.863 55.1322C846.28 58.6648 846.989 62.7599 846.989 67.4177ZM889.432 94.6579C888.33 92.8786 887.031 90.9553 885.534 88.888C884.038 86.8208 882.411 84.7536 880.652 82.6864C878.894 80.6192 877.069 78.6304 875.179 76.7202C873.29 74.81 871.4 73.1222 869.51 71.6568V94.6579H857.226V40.256H869.51V60.8236C872.712 57.4741 875.928 53.9808 879.156 50.3435C882.385 46.7063 885.39 43.3438 888.172 40.256H902.74C899.013 44.6521 895.272 48.8913 891.519 52.9734C887.765 57.0555 883.815 61.1637 879.668 65.2982C884.025 68.9093 888.238 73.2007 892.306 78.1725C896.375 83.1443 900.273 88.6394 904 94.6579H889.432Z" fill="url(#paint5_linear_914_12)"/>
<defs>
<linearGradient id="paint0_linear_914_12" x1="379" y1="35" x2="410.506" y2="188.189" gradientUnits="userSpaceOnUse">
<stop stop-color="#2A9D8F"/>
<stop offset="1" stop-color="#1F756A"/>
</linearGradient>
<linearGradient id="paint1_linear_914_12" x1="379" y1="35" x2="410.506" y2="188.189" gradientUnits="userSpaceOnUse">
<stop stop-color="#2A9D8F"/>
<stop offset="1" stop-color="#1F756A"/>
</linearGradient>
<linearGradient id="paint2_linear_914_12" x1="379" y1="35" x2="410.506" y2="188.189" gradientUnits="userSpaceOnUse">
<stop stop-color="#2A9D8F"/>
<stop offset="1" stop-color="#1F756A"/>
</linearGradient>
<linearGradient id="paint3_linear_914_12" x1="600" y1="203" x2="600.047" y2="214.555" gradientUnits="userSpaceOnUse">
<stop stop-color="#264653"/>
<stop offset="1" stop-color="#162931"/>
</linearGradient>
<linearGradient id="paint4_linear_914_12" x1="699.5" y1="39" x2="711.885" y2="192.416" gradientUnits="userSpaceOnUse">
<stop stop-color="#264653"/>
<stop offset="1" stop-color="#162931"/>
</linearGradient>
<linearGradient id="paint5_linear_914_12" x1="699.5" y1="39" x2="711.885" y2="192.416" gradientUnits="userSpaceOnUse">
<stop stop-color="#264653"/>
<stop offset="1" stop-color="#162931"/>
</linearGradient>
</defs>
</svg>
