<svg width="495" height="148" viewBox="0 0 495 148" fill="none" xmlns="http://www.w3.org/2000/svg">
<rect width="495" height="148" rx="10" fill="#F1F1F1"/>
<path d="M408 114H208V119H408V114Z" fill="url(#paint0_linear_914_12)"/>
<path d="M235.114 68.7558V75.0383H225.241V101.491H217.872V75.0383H208V68.7558H235.114ZM249.427 68.3779C254.339 68.3779 258.102 69.2518 260.716 70.9995C263.33 72.7473 264.637 75.4634 264.637 79.1479C264.637 81.4467 264.109 83.3125 263.054 84.7454C261.999 86.1782 260.48 87.304 258.496 88.1228C259.157 88.9416 259.85 89.8784 260.574 90.9334C261.299 91.9883 262.015 93.0905 262.724 94.24C263.432 95.3894 264.117 96.5861 264.778 97.8299C265.44 99.0738 266.054 100.294 266.621 101.491H258.354C257.756 100.42 257.15 99.3336 256.536 98.2315C255.922 97.1293 255.292 96.0586 254.646 95.0194C254.001 93.9802 253.363 92.9961 252.733 92.0671C252.103 91.1381 251.473 90.2957 250.844 89.5399H247.206V101.491H239.838V69.2282C241.444 68.9132 243.105 68.6928 244.821 68.5668C246.537 68.4409 248.072 68.3779 249.427 68.3779ZM249.852 74.6604C249.316 74.6604 248.836 74.6761 248.411 74.7076C247.986 74.7391 247.584 74.7706 247.206 74.8021V83.6826H249.285C252.056 83.6826 254.04 83.3362 255.237 82.6434C256.433 81.9506 257.032 80.7696 257.032 79.1006C257.032 77.4946 256.425 76.353 255.213 75.676C254.001 74.9989 252.214 74.6604 249.852 74.6604ZM271.344 68.7558H278.713V101.491H271.344V68.7558ZM302.237 74.4242C298.805 74.4242 296.325 75.3768 294.797 77.282C293.27 79.1872 292.506 81.7931 292.506 85.0997C292.506 86.7057 292.695 88.1622 293.073 89.4691C293.451 90.7759 294.018 91.9017 294.774 92.8465C295.53 93.7912 296.474 94.5234 297.608 95.043C298.742 95.5626 300.064 95.8224 301.576 95.8224C302.395 95.8224 303.095 95.8066 303.678 95.7751C304.26 95.7437 304.772 95.6807 305.213 95.5862V84.2022H312.582V100.404C311.7 100.751 310.283 101.121 308.331 101.514C306.378 101.908 303.969 102.105 301.103 102.105C298.647 102.105 296.419 101.727 294.419 100.971C292.42 100.215 290.711 99.1132 289.294 97.6646C287.877 96.216 286.783 94.4368 286.011 92.3269C285.24 90.217 284.854 87.8079 284.854 85.0997C284.854 82.3599 285.279 79.9351 286.129 77.8252C286.98 75.7153 288.145 73.9282 289.625 72.4639C291.105 70.9995 292.845 69.8895 294.845 69.1337C296.844 68.3779 298.978 68 301.245 68C302.788 68 304.182 68.1023 305.426 68.307C306.669 68.5117 307.74 68.7479 308.638 69.0156C309.535 69.2833 310.275 69.5588 310.858 69.8422C311.44 70.1256 311.858 70.3461 312.11 70.5035L309.984 76.4081C308.976 75.8728 307.819 75.4083 306.512 75.0146C305.205 74.621 303.78 74.4242 302.237 74.4242ZM335.397 74.4242C331.965 74.4242 329.485 75.3768 327.957 77.282C326.43 79.1872 325.667 81.7931 325.667 85.0997C325.667 86.7057 325.855 88.1622 326.233 89.4691C326.611 90.7759 327.178 91.9017 327.934 92.8465C328.69 93.7912 329.634 94.5234 330.768 95.043C331.902 95.5626 333.224 95.8224 334.736 95.8224C335.555 95.8224 336.255 95.8066 336.838 95.7751C337.421 95.7437 337.932 95.6807 338.373 95.5862V84.2022H345.742V100.404C344.86 100.751 343.443 101.121 341.491 101.514C339.538 101.908 337.129 102.105 334.264 102.105C331.807 102.105 329.579 101.727 327.58 100.971C325.58 100.215 323.872 99.1132 322.454 97.6646C321.037 96.216 319.943 94.4368 319.171 92.3269C318.4 90.217 318.014 87.8079 318.014 85.0997C318.014 82.3599 318.439 79.9351 319.29 77.8252C320.14 75.7153 321.305 73.9282 322.785 72.4639C324.265 70.9995 326.005 69.8895 328.005 69.1337C330.004 68.3779 332.138 68 334.405 68C335.948 68 337.342 68.1023 338.586 68.307C339.83 68.5117 340.9 68.7479 341.798 69.0156C342.695 69.2833 343.435 69.5588 344.018 69.8422C344.601 70.1256 345.018 70.3461 345.27 70.5035L343.144 76.4081C342.136 75.8728 340.979 75.4083 339.672 75.0146C338.365 74.621 336.94 74.4242 335.397 74.4242ZM352.591 101.491V68.7558H374.698V74.9438H359.96V81.368H373.045V87.4143H359.96V95.3028H375.785V101.491H352.591ZM390.806 68.3779C395.718 68.3779 399.482 69.2518 402.095 70.9995C404.709 72.7473 406.016 75.4634 406.016 79.1479C406.016 81.4467 405.489 83.3125 404.434 84.7454C403.379 86.1782 401.859 87.304 399.875 88.1228C400.537 88.9416 401.229 89.8784 401.954 90.9334C402.678 91.9883 403.394 93.0905 404.103 94.24C404.812 95.3894 405.496 96.5861 406.158 97.8299C406.819 99.0738 407.433 100.294 408 101.491H399.734C399.135 100.42 398.529 99.3336 397.915 98.2315C397.301 97.1293 396.671 96.0586 396.025 95.0194C395.38 93.9802 394.742 92.9961 394.112 92.0671C393.483 91.1381 392.853 90.2957 392.223 89.5399H388.586V101.491H381.217V69.2282C382.823 68.9132 384.484 68.6928 386.2 68.5668C387.917 68.4409 389.452 68.3779 390.806 68.3779ZM391.231 74.6604C390.696 74.6604 390.215 74.6761 389.79 74.7076C389.365 74.7391 388.964 74.7706 388.586 74.8021V83.6826H390.664C393.435 83.6826 395.419 83.3362 396.616 82.6434C397.813 81.9506 398.411 80.7696 398.411 79.1006C398.411 77.4946 397.805 76.353 396.592 75.676C395.38 74.9989 393.593 74.6604 391.231 74.6604Z" fill="url(#paint1_linear_914_12)"/>
<path d="M228.216 33.4655C228.524 34.518 228.864 35.7053 229.236 37.0273C229.608 38.3494 230.006 39.7163 230.43 41.1282C230.853 42.5401 231.283 43.952 231.72 45.3639C232.156 46.7758 232.58 48.085 232.99 49.2915C233.324 47.9823 233.664 46.5576 234.011 45.0173C234.357 43.4771 234.685 41.8855 234.993 40.2426C235.301 38.5997 235.602 36.9632 235.898 35.3331C236.193 33.703 236.469 32.1307 236.725 30.6161H242.963C242.065 35.0828 241.032 39.6137 239.864 44.2087C238.696 48.8037 237.431 53.1678 236.071 57.3007H230.564C229.666 54.8364 228.793 52.25 227.946 49.5418C227.099 46.8335 226.265 44.1189 225.443 41.3978C224.622 44.1189 223.8 46.8335 222.979 49.5418C222.157 52.25 221.297 54.8364 220.399 57.3007H214.893C213.532 53.1678 212.268 48.8037 211.1 44.2087C209.932 39.6137 208.898 35.0828 208 30.6161H214.508C214.764 32.1307 215.047 33.703 215.355 35.3331C215.663 36.9632 215.984 38.5997 216.317 40.2426C216.651 41.8855 216.991 43.4771 217.338 45.0173C217.684 46.5576 218.037 47.9823 218.397 49.2915C218.859 48.0336 219.308 46.6988 219.744 45.2869C220.181 43.875 220.604 42.4631 221.015 41.0512C221.426 39.6393 221.804 38.2788 222.151 36.9696C222.497 35.6604 222.812 34.4924 223.094 33.4655H228.216ZM246.814 57.3007V30.6161H264.835V35.6604H252.821V40.8972H263.487V45.826H252.821V52.2564H265.72V57.3007H246.814ZM279.044 57.6473C277.58 57.6473 276.123 57.6024 274.673 57.5125C273.223 57.4227 271.715 57.2109 270.149 56.8772V31.0012C271.381 30.7701 272.729 30.5968 274.192 30.4813C275.655 30.3658 277.016 30.308 278.273 30.308C279.968 30.308 281.527 30.43 282.952 30.6739C284.377 30.9177 285.602 31.3349 286.629 31.9253C287.656 32.5157 288.458 33.2923 289.036 34.2549C289.613 35.2176 289.902 36.4048 289.902 37.8167C289.902 39.9474 288.875 41.6288 286.822 42.861C288.516 43.5028 289.671 44.3756 290.287 45.4794C290.903 46.5832 291.211 47.8283 291.211 49.2145C291.211 52.0126 290.191 54.1176 288.15 55.5295C286.109 56.9413 283.074 57.6473 279.044 57.6473ZM276.002 45.6719V52.5645C276.438 52.6158 276.913 52.6543 277.426 52.68C277.94 52.7057 278.504 52.7185 279.121 52.7185C280.917 52.7185 282.368 52.4618 283.472 51.9484C284.576 51.435 285.127 50.4852 285.127 49.099C285.127 47.8668 284.665 46.9875 283.741 46.4613C282.817 45.9351 281.495 45.6719 279.775 45.6719H276.002ZM276.002 41.0897H278.928C280.776 41.0897 282.098 40.8523 282.894 40.3774C283.69 39.9025 284.088 39.1388 284.088 38.0863C284.088 37.0081 283.677 36.2508 282.856 35.8144C282.034 35.378 280.828 35.1598 279.236 35.1598C278.723 35.1598 278.171 35.1662 277.58 35.1791C276.99 35.1919 276.464 35.224 276.002 35.2753V41.0897ZM312.12 30.6161H318.127V57.3007H312.12V45.98H302.032V57.3007H296.025V30.6161H302.032V40.8202H312.12V30.6161ZM329.332 43.9392C329.332 45.2484 329.493 46.4292 329.814 47.4817C330.135 48.5342 330.597 49.4391 331.2 50.1964C331.803 50.9537 332.541 51.5377 333.414 51.9484C334.287 52.3591 335.288 52.5645 336.417 52.5645C337.521 52.5645 338.516 52.3591 339.402 51.9484C340.287 51.5377 341.032 50.9537 341.635 50.1964C342.238 49.4391 342.7 48.5342 343.021 47.4817C343.342 46.4292 343.503 45.2484 343.503 43.9392C343.503 42.63 343.342 41.4427 343.021 40.3774C342.7 39.312 342.238 38.4007 341.635 37.6434C341.032 36.8862 340.287 36.3021 339.402 35.8914C338.516 35.4807 337.521 35.2753 336.417 35.2753C335.288 35.2753 334.287 35.4871 333.414 35.9107C332.541 36.3342 331.803 36.9247 331.2 37.6819C330.597 38.4392 330.135 39.3505 329.814 40.4159C329.493 41.4812 329.332 42.6556 329.332 43.9392ZM349.702 43.9392C349.702 46.2238 349.362 48.2326 348.682 49.9653C348.001 51.6981 347.071 53.1485 345.89 54.3165C344.709 55.4845 343.304 56.3638 341.673 56.9542C340.043 57.5446 338.291 57.8398 336.417 57.8398C334.595 57.8398 332.875 57.5446 331.258 56.9542C329.64 56.3638 328.228 55.4845 327.022 54.3165C325.815 53.1485 324.866 51.6981 324.173 49.9653C323.479 48.2326 323.133 46.2238 323.133 43.9392C323.133 41.6545 323.492 39.6457 324.211 37.913C324.93 36.1802 325.899 34.7234 327.118 33.5425C328.338 32.3617 329.749 31.4761 331.354 30.8856C332.958 30.2952 334.646 30 336.417 30C338.24 30 339.96 30.2952 341.577 30.8856C343.194 31.4761 344.606 32.3617 345.813 33.5425C347.019 34.7234 347.969 36.1802 348.662 37.913C349.355 39.6457 349.702 41.6545 349.702 43.9392ZM359.752 43.9392C359.752 45.2484 359.912 46.4292 360.233 47.4817C360.554 48.5342 361.016 49.4391 361.62 50.1964C362.223 50.9537 362.961 51.5377 363.834 51.9484C364.706 52.3591 365.708 52.5645 366.837 52.5645C367.941 52.5645 368.936 52.3591 369.821 51.9484C370.707 51.5377 371.451 50.9537 372.055 50.1964C372.658 49.4391 373.12 48.5342 373.441 47.4817C373.762 46.4292 373.922 45.2484 373.922 43.9392C373.922 42.63 373.762 41.4427 373.441 40.3774C373.12 39.312 372.658 38.4007 372.055 37.6434C371.451 36.8862 370.707 36.3021 369.821 35.8914C368.936 35.4807 367.941 35.2753 366.837 35.2753C365.708 35.2753 364.706 35.4871 363.834 35.9107C362.961 36.3342 362.223 36.9247 361.62 37.6819C361.016 38.4392 360.554 39.3505 360.233 40.4159C359.912 41.4812 359.752 42.6556 359.752 43.9392ZM380.122 43.9392C380.122 46.2238 379.782 48.2326 379.101 49.9653C378.421 51.6981 377.49 53.1485 376.31 54.3165C375.129 55.4845 373.723 56.3638 372.093 56.9542C370.463 57.5446 368.711 57.8398 366.837 57.8398C365.015 57.8398 363.295 57.5446 361.677 56.9542C360.06 56.3638 358.648 55.4845 357.442 54.3165C356.235 53.1485 355.285 51.6981 354.592 49.9653C353.899 48.2326 353.553 46.2238 353.553 43.9392C353.553 41.6545 353.912 39.6457 354.631 37.913C355.35 36.1802 356.319 34.7234 357.538 33.5425C358.757 32.3617 360.169 31.4761 361.774 30.8856C363.378 30.2952 365.066 30 366.837 30C368.66 30 370.38 30.2952 371.997 30.8856C373.614 31.4761 375.026 32.3617 376.233 33.5425C377.439 34.7234 378.389 36.1802 379.082 37.913C379.775 39.6457 380.122 41.6545 380.122 43.9392ZM400.876 57.3007C400.337 56.4279 399.702 55.4845 398.97 54.4705C398.239 53.4566 397.443 52.4426 396.583 51.4286C395.723 50.4146 394.831 49.4391 393.907 48.5021C392.983 47.5651 392.059 46.7373 391.134 46.0185V57.3007H385.127V30.6161H391.134V40.7047C392.7 39.0617 394.273 37.3482 395.851 35.5641C397.43 33.78 398.9 32.1307 400.26 30.6161H407.384C405.561 32.7724 403.732 34.8518 401.897 36.8541C400.061 38.8564 398.13 40.8715 396.102 42.8995C398.232 44.6708 400.292 46.7758 402.282 49.2145C404.271 51.6532 406.177 54.3486 408 57.3007H400.876Z" fill="url(#paint2_linear_914_12)"/>
<path fill-rule="evenodd" clip-rule="evenodd" d="M165.94 98.9347H116.744V104.203C115.788 109.604 111.051 113.708 105.352 113.708C98.9629 113.708 93.7839 108.552 93.7839 102.192C93.7839 98.2676 95.7559 94.8017 98.7673 92.7227L95.4502 88.0053C90.9472 91.1257 88 96.3163 88 102.192C88 111.732 95.7686 119.465 105.352 119.465C113.946 119.465 121.08 113.246 122.462 105.082H165.706C166.708 106.797 168.574 107.95 170.71 107.95C173.905 107.95 176.494 105.372 176.494 102.192C176.494 99.0122 173.905 96.4343 170.71 96.4343C168.731 96.4343 166.983 97.4246 165.94 98.9347Z" fill="url(#paint3_linear_914_12)"/>
<path fill-rule="evenodd" clip-rule="evenodd" d="M100.176 99.7961C100.276 99.5491 100.394 99.306 100.531 99.0686C101.594 97.228 103.518 96.1949 105.499 96.185L127.189 58.6174C120.798 53.3433 118.961 44.0706 123.245 36.651C128.019 28.3812 138.589 25.5451 146.854 30.3164C151.927 33.2458 154.952 38.3616 155.427 43.7887L149.688 44.2919C149.372 40.6728 147.355 37.2611 143.972 35.3077C138.462 32.1268 131.416 34.0176 128.233 39.5308C125.115 44.93 126.86 51.8011 132.108 55.0706L135.279 56.9018L110.713 99.4517C111.411 100.91 111.487 102.639 110.821 104.2C110.009 106.398 107.894 107.965 105.413 107.965C102.23 107.965 99.6492 105.386 99.6492 102.205C99.6492 101.345 99.8379 100.529 100.176 99.7961Z" fill="url(#paint4_linear_914_12)"/>
<path fill-rule="evenodd" clip-rule="evenodd" d="M137.706 50.9929L162.026 93.117L164.923 91.4448L164.972 91.5299C164.996 91.5159 165.02 91.5019 165.044 91.488C170.557 88.3049 177.581 90.1492 180.732 95.6074C183.884 101.066 181.969 108.071 176.455 111.254C173.057 113.216 169.084 113.268 165.798 111.74L163.345 116.935C168.269 119.216 174.218 119.134 179.308 116.195C187.578 111.421 190.451 100.913 185.724 92.7256C181.456 85.3334 172.452 82.3603 164.657 85.367L143.077 47.9901C144.007 46.295 144.059 44.1808 143.029 42.397C141.453 39.6679 137.941 38.7458 135.185 40.3373C132.428 41.9289 131.471 45.4314 133.046 48.1605C134.048 49.895 135.831 50.8996 137.706 50.9929Z" fill="url(#paint5_linear_914_12)"/>
<defs>
<linearGradient id="paint0_linear_914_12" x1="308" y1="30" x2="317.252" y2="122.565" gradientUnits="userSpaceOnUse">
<stop stop-color="#264653"/>
<stop offset="1" stop-color="#162931"/>
</linearGradient>
<linearGradient id="paint1_linear_914_12" x1="308" y1="30" x2="317.252" y2="122.565" gradientUnits="userSpaceOnUse">
<stop stop-color="#264653"/>
<stop offset="1" stop-color="#162931"/>
</linearGradient>
<linearGradient id="paint2_linear_914_12" x1="308" y1="30" x2="317.252" y2="122.565" gradientUnits="userSpaceOnUse">
<stop stop-color="#264653"/>
<stop offset="1" stop-color="#162931"/>
</linearGradient>
<linearGradient id="paint3_linear_914_12" x1="138" y1="28" x2="156.939" y2="120.189" gradientUnits="userSpaceOnUse">
<stop stop-color="#2A9D8F"/>
<stop offset="1" stop-color="#1F756A"/>
</linearGradient>
<linearGradient id="paint4_linear_914_12" x1="138" y1="28" x2="156.939" y2="120.189" gradientUnits="userSpaceOnUse">
<stop stop-color="#2A9D8F"/>
<stop offset="1" stop-color="#1F756A"/>
</linearGradient>
<linearGradient id="paint5_linear_914_12" x1="138" y1="28" x2="156.939" y2="120.189" gradientUnits="userSpaceOnUse">
<stop stop-color="#2A9D8F"/>
<stop offset="1" stop-color="#1F756A"/>
</linearGradient>
</defs>
</svg>
