<svg width="250" height="250" viewBox="0 0 250 250" fill="none" xmlns="http://www.w3.org/2000/svg">
<rect width="250" height="250" rx="10" fill="#F1F1F1"/>
<path d="M225 220H25V225H225V220Z" fill="url(#paint0_linear_912_20)"/>
<path d="M52.1138 174.756V181.038H42.2414V207.491H34.8725V181.038H25V174.756H52.1138ZM66.4265 174.378C71.3392 174.378 75.1023 175.252 77.7161 177C80.3299 178.747 81.6367 181.463 81.6367 185.148C81.6367 187.447 81.1093 189.313 80.0543 190.745C78.9994 192.178 77.4799 193.304 75.496 194.123C76.1573 194.942 76.8501 195.878 77.5744 196.933C78.2987 197.988 79.0151 199.091 79.7237 200.24C80.4322 201.389 81.1171 202.586 81.7785 203.83C82.4398 205.074 83.0538 206.294 83.6207 207.491H75.3543C74.7559 206.42 74.1497 205.334 73.5357 204.231C72.9216 203.129 72.2918 202.059 71.6462 201.019C71.0006 199.98 70.3629 198.996 69.7331 198.067C69.1033 197.138 68.4735 196.296 67.8436 195.54H64.2064V207.491H56.8375V175.228C58.4436 174.913 60.1047 174.693 61.821 174.567C63.5372 174.441 65.0724 174.378 66.4265 174.378ZM66.8517 180.66C66.3163 180.66 65.8361 180.676 65.411 180.708C64.9858 180.739 64.5843 180.771 64.2064 180.802V189.683H66.2848C69.056 189.683 71.04 189.336 72.2367 188.643C73.4333 187.951 74.0316 186.77 74.0316 185.101C74.0316 183.495 73.4254 182.353 72.213 181.676C71.0006 180.999 69.2135 180.66 66.8517 180.66ZM88.3443 174.756H95.7133V207.491H88.3443V174.756ZM119.237 180.424C115.805 180.424 113.325 181.377 111.797 183.282C110.27 185.187 109.506 187.793 109.506 191.1C109.506 192.706 109.695 194.162 110.073 195.469C110.451 196.776 111.018 197.902 111.774 198.846C112.53 199.791 113.474 200.523 114.608 201.043C115.742 201.563 117.064 201.822 118.576 201.822C119.395 201.822 120.095 201.807 120.678 201.775C121.26 201.744 121.772 201.681 122.213 201.586V190.202H129.582V206.404C128.7 206.751 127.283 207.121 125.331 207.514C123.378 207.908 120.969 208.105 118.103 208.105C115.647 208.105 113.419 207.727 111.419 206.971C109.42 206.215 107.711 205.113 106.294 203.665C104.877 202.216 103.783 200.437 103.011 198.327C102.24 196.217 101.854 193.808 101.854 191.1C101.854 188.36 102.279 185.935 103.129 183.825C103.98 181.715 105.145 179.928 106.625 178.464C108.105 177 109.845 175.889 111.845 175.134C113.844 174.378 115.978 174 118.245 174C119.788 174 121.182 174.102 122.426 174.307C123.669 174.512 124.74 174.748 125.638 175.016C126.535 175.283 127.275 175.559 127.858 175.842C128.44 176.126 128.858 176.346 129.11 176.504L126.984 182.408C125.976 181.873 124.819 181.408 123.512 181.015C122.205 180.621 120.78 180.424 119.237 180.424ZM152.397 180.424C148.965 180.424 146.485 181.377 144.957 183.282C143.43 185.187 142.667 187.793 142.667 191.1C142.667 192.706 142.855 194.162 143.233 195.469C143.611 196.776 144.178 197.902 144.934 198.846C145.69 199.791 146.634 200.523 147.768 201.043C148.902 201.563 150.224 201.822 151.736 201.822C152.555 201.822 153.255 201.807 153.838 201.775C154.421 201.744 154.932 201.681 155.373 201.586V190.202H162.742V206.404C161.86 206.751 160.443 207.121 158.491 207.514C156.538 207.908 154.129 208.105 151.264 208.105C148.807 208.105 146.579 207.727 144.58 206.971C142.58 206.215 140.872 205.113 139.454 203.665C138.037 202.216 136.943 200.437 136.171 198.327C135.4 196.217 135.014 193.808 135.014 191.1C135.014 188.36 135.439 185.935 136.29 183.825C137.14 181.715 138.305 179.928 139.785 178.464C141.265 177 143.005 175.889 145.005 175.134C147.004 174.378 149.138 174 151.405 174C152.948 174 154.342 174.102 155.586 174.307C156.83 174.512 157.9 174.748 158.798 175.016C159.695 175.283 160.435 175.559 161.018 175.842C161.601 176.126 162.018 176.346 162.27 176.504L160.144 182.408C159.136 181.873 157.979 181.408 156.672 181.015C155.365 180.621 153.94 180.424 152.397 180.424ZM169.591 207.491V174.756H191.698V180.944H176.96V187.368H190.045V193.414H176.96V201.303H192.785V207.491H169.591ZM207.806 174.378C212.718 174.378 216.482 175.252 219.095 177C221.709 178.747 223.016 181.463 223.016 185.148C223.016 187.447 222.489 189.313 221.434 190.745C220.379 192.178 218.859 193.304 216.875 194.123C217.537 194.942 218.229 195.878 218.954 196.933C219.678 197.988 220.394 199.091 221.103 200.24C221.812 201.389 222.496 202.586 223.158 203.83C223.819 205.074 224.433 206.294 225 207.491H216.734C216.135 206.42 215.529 205.334 214.915 204.231C214.301 203.129 213.671 202.059 213.025 201.019C212.38 199.98 211.742 198.996 211.112 198.067C210.483 197.138 209.853 196.296 209.223 195.54H205.586V207.491H198.217V175.228C199.823 174.913 201.484 174.693 203.2 174.567C204.917 174.441 206.452 174.378 207.806 174.378ZM208.231 180.66C207.696 180.66 207.215 180.676 206.79 180.708C206.365 180.739 205.964 180.771 205.586 180.802V189.683H207.664C210.435 189.683 212.419 189.336 213.616 188.643C214.813 187.951 215.411 186.77 215.411 185.101C215.411 183.495 214.805 182.353 213.592 181.676C212.38 180.999 210.593 180.66 208.231 180.66Z" fill="url(#paint1_linear_912_20)"/>
<path d="M45.2156 139.466C45.5237 140.518 45.8638 141.705 46.236 143.027C46.6083 144.349 47.0062 145.716 47.4297 147.128C47.8533 148.54 48.2833 149.952 48.7197 151.364C49.1561 152.776 49.5796 154.085 49.9904 155.291C50.3241 153.982 50.6642 152.558 51.0108 151.017C51.3573 149.477 51.6846 147.886 51.9927 146.243C52.3007 144.6 52.6024 142.963 52.8976 141.333C53.1928 139.703 53.4687 138.131 53.7255 136.616H59.9634C59.0649 141.083 58.0317 145.614 56.8637 150.209C55.6957 154.804 54.4314 159.168 53.0709 163.301H47.5645C46.666 160.836 45.7932 158.25 44.9461 155.542C44.099 152.834 43.2647 150.119 42.4432 147.398C41.6217 150.119 40.8003 152.834 39.9788 155.542C39.1574 158.25 38.2974 160.836 37.3989 163.301H31.8926C30.532 159.168 29.2677 154.804 28.0997 150.209C26.9317 145.614 25.8985 141.083 25 136.616H31.5075C31.7642 138.131 32.0466 139.703 32.3546 141.333C32.6627 142.963 32.9836 144.6 33.3173 146.243C33.651 147.886 33.9911 149.477 34.3377 151.017C34.6843 152.558 35.0372 153.982 35.3966 155.291C35.8587 154.034 36.3079 152.699 36.7443 151.287C37.1807 149.875 37.6043 148.463 38.015 147.051C38.4257 145.639 38.8044 144.279 39.1509 142.97C39.4975 141.66 39.812 140.492 40.0943 139.466H45.2156ZM63.814 163.301V136.616H81.8348V141.66H69.8209V146.897H80.4871V151.826H69.8209V158.256H82.7204V163.301H63.814ZM96.0435 163.647C94.5803 163.647 93.1235 163.602 91.6731 163.513C90.2227 163.423 88.7145 163.211 87.1486 162.877V137.001C88.3808 136.77 89.7285 136.597 91.1918 136.481C92.655 136.366 94.0155 136.308 95.2734 136.308C96.9677 136.308 98.5271 136.43 99.9519 136.674C101.377 136.918 102.602 137.335 103.629 137.925C104.656 138.516 105.458 139.292 106.036 140.255C106.613 141.218 106.902 142.405 106.902 143.817C106.902 145.947 105.875 147.629 103.822 148.861C105.516 149.503 106.671 150.376 107.287 151.479C107.903 152.583 108.211 153.828 108.211 155.214C108.211 158.013 107.191 160.118 105.15 161.529C103.109 162.941 100.074 163.647 96.0435 163.647ZM93.0015 151.672V158.565C93.4379 158.616 93.9128 158.654 94.4263 158.68C94.9397 158.706 95.5044 158.719 96.1205 158.719C97.9175 158.719 99.3679 158.462 100.472 157.948C101.576 157.435 102.127 156.485 102.127 155.099C102.127 153.867 101.665 152.988 100.741 152.461C99.8171 151.935 98.4951 151.672 96.7751 151.672H93.0015ZM93.0015 147.09H95.928C97.7763 147.09 99.0983 146.852 99.8941 146.377C100.69 145.902 101.088 145.139 101.088 144.086C101.088 143.008 100.677 142.251 99.8556 141.814C99.0341 141.378 97.8276 141.16 96.236 141.16C95.7226 141.16 95.1707 141.166 94.5803 141.179C93.9899 141.192 93.4636 141.224 93.0015 141.275V147.09ZM129.12 136.616H135.127V163.301H129.12V151.98H119.032V163.301H113.025V136.616H119.032V146.82H129.12V136.616ZM146.332 149.939C146.332 151.248 146.493 152.429 146.814 153.482C147.135 154.534 147.597 155.439 148.2 156.196C148.803 156.954 149.541 157.538 150.414 157.948C151.287 158.359 152.288 158.565 153.417 158.565C154.521 158.565 155.516 158.359 156.402 157.948C157.287 157.538 158.032 156.954 158.635 156.196C159.238 155.439 159.7 154.534 160.021 153.482C160.342 152.429 160.503 151.248 160.503 149.939C160.503 148.63 160.342 147.443 160.021 146.377C159.7 145.312 159.238 144.401 158.635 143.643C158.032 142.886 157.287 142.302 156.402 141.891C155.516 141.481 154.521 141.275 153.417 141.275C152.288 141.275 151.287 141.487 150.414 141.911C149.541 142.334 148.803 142.925 148.2 143.682C147.597 144.439 147.135 145.351 146.814 146.416C146.493 147.481 146.332 148.656 146.332 149.939ZM166.702 149.939C166.702 152.224 166.362 154.233 165.682 155.965C165.001 157.698 164.071 159.149 162.89 160.317C161.709 161.485 160.304 162.364 158.673 162.954C157.043 163.545 155.291 163.84 153.417 163.84C151.595 163.84 149.875 163.545 148.258 162.954C146.64 162.364 145.228 161.485 144.022 160.317C142.815 159.149 141.866 157.698 141.173 155.965C140.479 154.233 140.133 152.224 140.133 149.939C140.133 147.654 140.492 145.646 141.211 143.913C141.93 142.18 142.899 140.723 144.118 139.543C145.338 138.362 146.749 137.476 148.354 136.886C149.958 136.295 151.646 136 153.417 136C155.24 136 156.96 136.295 158.577 136.886C160.194 137.476 161.606 138.362 162.813 139.543C164.019 140.723 164.969 142.18 165.662 143.913C166.355 145.646 166.702 147.654 166.702 149.939ZM176.752 149.939C176.752 151.248 176.912 152.429 177.233 153.482C177.554 154.534 178.016 155.439 178.62 156.196C179.223 156.954 179.961 157.538 180.834 157.948C181.706 158.359 182.708 158.565 183.837 158.565C184.941 158.565 185.936 158.359 186.821 157.948C187.707 157.538 188.451 156.954 189.055 156.196C189.658 155.439 190.12 154.534 190.441 153.482C190.762 152.429 190.922 151.248 190.922 149.939C190.922 148.63 190.762 147.443 190.441 146.377C190.12 145.312 189.658 144.401 189.055 143.643C188.451 142.886 187.707 142.302 186.821 141.891C185.936 141.481 184.941 141.275 183.837 141.275C182.708 141.275 181.706 141.487 180.834 141.911C179.961 142.334 179.223 142.925 178.62 143.682C178.016 144.439 177.554 145.351 177.233 146.416C176.912 147.481 176.752 148.656 176.752 149.939ZM197.122 149.939C197.122 152.224 196.782 154.233 196.101 155.965C195.421 157.698 194.49 159.149 193.31 160.317C192.129 161.485 190.723 162.364 189.093 162.954C187.463 163.545 185.711 163.84 183.837 163.84C182.015 163.84 180.295 163.545 178.677 162.954C177.06 162.364 175.648 161.485 174.442 160.317C173.235 159.149 172.285 157.698 171.592 155.965C170.899 154.233 170.553 152.224 170.553 149.939C170.553 147.654 170.912 145.646 171.631 143.913C172.35 142.18 173.319 140.723 174.538 139.543C175.757 138.362 177.169 137.476 178.774 136.886C180.378 136.295 182.066 136 183.837 136C185.66 136 187.38 136.295 188.997 136.886C190.614 137.476 192.026 138.362 193.233 139.543C194.439 140.723 195.389 142.18 196.082 143.913C196.775 145.646 197.122 147.654 197.122 149.939ZM217.876 163.301C217.337 162.428 216.702 161.485 215.97 160.471C215.239 159.457 214.443 158.443 213.583 157.429C212.723 156.415 211.831 155.439 210.907 154.502C209.983 153.565 209.059 152.737 208.134 152.018V163.301H202.127V136.616H208.134V146.705C209.7 145.062 211.273 143.348 212.851 141.564C214.43 139.78 215.9 138.131 217.26 136.616H224.384C222.561 138.772 220.732 140.852 218.897 142.854C217.061 144.856 215.13 146.872 213.102 148.899C215.232 150.671 217.292 152.776 219.282 155.214C221.271 157.653 223.177 160.349 225 163.301H217.876Z" fill="url(#paint2_linear_912_20)"/>
<path fill-rule="evenodd" clip-rule="evenodd" d="M152.94 95.9347H103.744V101.203C102.788 106.604 98.0511 110.708 92.3516 110.708C85.9629 110.708 80.7839 105.552 80.7839 99.1921C80.7839 95.2676 82.7559 91.8017 85.7673 89.7227L82.4502 85.0053C77.9472 88.1257 75 93.3163 75 99.1921C75 108.732 82.7686 116.465 92.3516 116.465C100.946 116.465 108.08 110.246 109.462 102.082H152.706C153.708 103.797 155.574 104.95 157.71 104.95C160.905 104.95 163.494 102.372 163.494 99.1921C163.494 96.0122 160.905 93.4343 157.71 93.4343C155.731 93.4343 153.983 94.4246 152.94 95.9347Z" fill="url(#paint3_linear_912_20)"/>
<path fill-rule="evenodd" clip-rule="evenodd" d="M87.1761 96.7961C87.2761 96.5491 87.3943 96.306 87.5314 96.0686C88.5941 94.228 90.518 93.1949 92.4993 93.185L114.189 55.6174C107.798 50.3433 105.961 41.0706 110.245 33.651C115.019 25.3812 125.589 22.5451 133.854 27.3164C138.927 30.2458 141.952 35.3616 142.427 40.7887L136.688 41.2919C136.372 37.6728 134.355 34.2611 130.972 32.3077C125.462 29.1268 118.416 31.0176 115.233 36.5308C112.115 41.93 113.86 48.8011 119.108 52.0706L122.279 53.9018L97.7131 96.4517C98.4112 97.9097 98.4865 99.6394 97.8211 101.2C97.0091 103.398 94.894 104.965 92.4126 104.965C89.2295 104.965 86.6492 102.386 86.6492 99.2054C86.6492 98.3452 86.8379 97.5291 87.1761 96.7961Z" fill="url(#paint4_linear_912_20)"/>
<path fill-rule="evenodd" clip-rule="evenodd" d="M124.706 47.9929L149.026 90.117L151.923 88.4448L151.972 88.5299C151.996 88.5159 152.02 88.5019 152.044 88.488C157.557 85.3049 164.581 87.1492 167.732 92.6074C170.884 98.0656 168.969 105.071 163.455 108.254C160.057 110.216 156.084 110.268 152.798 108.74L150.345 113.935C155.269 116.216 161.218 116.134 166.308 113.195C174.578 108.421 177.451 97.9129 172.724 89.7256C168.456 82.3334 159.452 79.3603 151.657 82.367L130.077 44.9901C131.007 43.295 131.059 41.1808 130.029 39.397C128.453 36.6679 124.941 35.7458 122.185 37.3373C119.428 38.9289 118.471 42.4314 120.046 45.1605C121.048 46.895 122.831 47.8996 124.706 47.9929Z" fill="url(#paint5_linear_912_20)"/>
<defs>
<linearGradient id="paint0_linear_912_20" x1="125" y1="136" x2="134.252" y2="228.565" gradientUnits="userSpaceOnUse">
<stop stop-color="#264653"/>
<stop offset="1" stop-color="#162931"/>
</linearGradient>
<linearGradient id="paint1_linear_912_20" x1="125" y1="136" x2="134.252" y2="228.565" gradientUnits="userSpaceOnUse">
<stop stop-color="#264653"/>
<stop offset="1" stop-color="#162931"/>
</linearGradient>
<linearGradient id="paint2_linear_912_20" x1="125" y1="136" x2="134.252" y2="228.565" gradientUnits="userSpaceOnUse">
<stop stop-color="#264653"/>
<stop offset="1" stop-color="#162931"/>
</linearGradient>
<linearGradient id="paint3_linear_912_20" x1="125" y1="25" x2="143.939" y2="117.189" gradientUnits="userSpaceOnUse">
<stop stop-color="#2A9D8F"/>
<stop offset="1" stop-color="#1F756A"/>
</linearGradient>
<linearGradient id="paint4_linear_912_20" x1="125" y1="25" x2="143.939" y2="117.189" gradientUnits="userSpaceOnUse">
<stop stop-color="#2A9D8F"/>
<stop offset="1" stop-color="#1F756A"/>
</linearGradient>
<linearGradient id="paint5_linear_912_20" x1="125" y1="25" x2="143.939" y2="117.189" gradientUnits="userSpaceOnUse">
<stop stop-color="#2A9D8F"/>
<stop offset="1" stop-color="#1F756A"/>
</linearGradient>
</defs>
</svg>
